<?xml version="1.0" encoding="UTF-8" standalone="no"?>
<svg width="20px" height="17px" viewBox="0 0 20 17" version="1.1" xmlns="http://www.w3.org/2000/svg" xmlns:xlink="http://www.w3.org/1999/xlink" xmlns:sketch="http://www.bohemiancoding.com/sketch/ns">
    <!-- Generator: Sketch 3.4.2 (15855) - http://www.bohemiancoding.com/sketch -->
    <title>Fill 1</title>
    <desc>Created with Sketch.</desc>
    <defs></defs>
    <g id="Artikel" stroke="none" stroke-width="1" fill="none" fill-rule="evenodd" sketch:type="MSPage">
        <g id="Artikel---Kategori-1" sketch:type="MSArtboardGroup" transform="translate(-167.000000, -1293.000000)" fill="#39A9F1">
            <g id="Main" sketch:type="MSLayerGroup" transform="translate(-24.000000, 123.000000)">
                <g id="Del-og-kommentér" transform="translate(44.000000, 1101.000000)" sketch:type="MSShapeGroup">
                    <g id="Social-buttons" transform="translate(61.000000, 66.000000)">
                        <g id="Twitter" transform="translate(86.000000, 3.000000)">
                            <path d="M6.28991551,16.2535572 C3.97271297,16.2535572 1.81586744,15.5743078 0,14.4101101 C0.321006621,14.4480047 0.64764622,14.4673909 0.978821464,14.4673909 C2.90120341,14.4673909 4.67047076,13.811405 6.07476499,12.7109258 C4.27923479,12.6777863 2.76389041,11.4914957 2.24177914,9.86129705 C2.4922638,9.90921394 2.74933246,9.93489155 3.01371667,9.93489155 C3.38798054,9.93489155 3.75046637,9.88477998 4.09480961,9.79099455 C2.21763781,9.41409708 0.803321263,7.75566041 0.803321263,5.76758477 C0.803321263,5.75032006 0.803321263,5.7331285 0.803613885,5.7160101 C1.35688943,6.02333663 1.98953875,6.20790812 2.66220418,6.22919639 C1.56121292,5.49339771 0.836753356,4.23746296 0.836753356,2.81392882 C0.836753356,2.06196276 1.03910165,1.35710889 1.39229672,0.751088189 C3.41607228,3.23354914 6.43951864,4.86711292 9.84973847,5.03822378 C9.77980175,4.73792019 9.74344343,4.42474121 9.74344343,4.10314935 C9.74344343,1.83715571 11.5806723,0 13.8468122,0 C15.0269578,0 16.0933465,0.498335711 16.8418742,1.29580453 C17.7765097,1.11174513 18.6546692,0.770254947 19.447456,0.300084129 C19.1410805,1.25820257 18.4905081,2.06232854 17.6432935,2.57017448 C18.4733165,2.47097553 19.2641282,2.2504115 20,1.92406452 C19.4498701,2.74691832 18.7541607,3.46962215 17.952522,4.04813636 C17.9604228,4.2240755 17.9643732,4.40103881 17.9643732,4.57895314 C17.9643732,10.0011705 13.8372289,16.2535572 6.28991551,16.2535572" id="Fill-1"></path>
                        </g>
                    </g>
                </g>
            </g>
        </g>
    </g>
</svg>