<?xml version="1.0" encoding="UTF-8" standalone="no"?>
<svg width="2200px" height="138px" viewBox="0 0 2200 138" version="1.1" xmlns="http://www.w3.org/2000/svg" xmlns:xlink="http://www.w3.org/1999/xlink" xmlns:sketch="http://www.bohemiancoding.com/sketch/ns">
    <!-- Generator: Sketch 3.4.2 (15855) - http://www.bohemiancoding.com/sketch -->
    <title>Hvid kant</title>
    <desc>Created with Sketch.</desc>
    <defs></defs>
    <g id="Desktop" stroke="none" stroke-width="1" fill="none" fill-rule="evenodd" sketch:type="MSPage">
        <g id="Artboard-5" sketch:type="MSArtboardGroup" fill="#FFFFFF">
            <path d="M1628,2.01027248e-08 C1525.50361,1.51522318e-07 1473.7922,116.826114 1432.6832,125.695159 C1422,128.000001 1417,131.000001 1372,131.000001 C1299,131.000001 1244.48131,124.039666 1160,123 C1101.96951,122.285851 1016.98075,128 971,128 C939.279805,128 910,134 770,125.69516 C720.582574,122.763704 664.052811,119.675769 615,120.23169 C574.063902,120.695623 513.569987,126.473006 464.353028,129.424532 C453.644431,130.066723 402.113132,132.457732 337.011577,132.693051 C290.826991,132.859991 237.812739,128.713861 187.69904,128.449569 C91.527128,127.942371 6.03750525,131 0,131 L0,138.000001 L2200,138 L2200,4.44627176e-07 C2186,4.44627176e-07 1730.49639,-1.11316865e-07 1628,2.01027248e-08 Z" id="Hvid-kant" sketch:type="MSShapeGroup"></path>
        </g>
    </g>
</svg>