<?xml version="1.0" encoding="UTF-8" standalone="no"?>
<svg width="1440px" height="13px" viewBox="0 0 1440 13" version="1.1" xmlns="http://www.w3.org/2000/svg" xmlns:xlink="http://www.w3.org/1999/xlink">
    <!-- Generator: Sketch 3.6.1 (26313) - http://www.bohemiancoding.com/sketch -->
    <title>kant-header-bottom</title>
    <desc>Created with Sketch.</desc>
    <defs></defs>
    <g id="Desktop" stroke="none" stroke-width="1" fill="none" fill-rule="evenodd">
        <g id="Desktop---Artikel-(grøn)" transform="translate(0.000000, -267.000000)" fill="#FFFFFF">
            <g id="Header-nav" transform="translate(0.000000, 134.000000)">
                <g id="Kanter">
                    <path d="M0,141 C0,141 2.66080474,140.93754 10,141 C46,140 74,136 133,137 C163.484763,137 206,138.783708 251,140 C321.280624,141.175352 367,141 419,141 C469.324618,141 520,133 583,133 C635,133 692,141 768,141 C870,141 877,137 940,137 C978,137 1059,143 1126,143 C1175,143 1236,135 1284,135 C1343,135 1396,141 1430,141 C1430,141 1440,141 1440,141 L1440,146 L0,145.999999 L0,141 Z" id="kant-header-bottom" transform="translate(720.000000, 139.500000) scale(-1, -1) translate(-720.000000, -139.500000) "></path>
                </g>
            </g>
        </g>
    </g>
</svg>