<?xml version="1.0" encoding="UTF-8" standalone="no"?>
<svg width="1440px" height="138px" viewBox="0 0 1440 138" version="1.1" xmlns="http://www.w3.org/2000/svg" xmlns:xlink="http://www.w3.org/1999/xlink" xmlns:sketch="http://www.bohemiancoding.com/sketch/ns">
    <!-- Generator: Sketch 3.4.2 (15855) - http://www.bohemiancoding.com/sketch -->
    <title>Hvid kant</title>
    <desc>Created with Sketch.</desc>
    <defs></defs>
    <g id="Desktop" stroke="none" stroke-width="1" fill="none" fill-rule="evenodd" sketch:type="MSPage">
        <g id="Desktop-HD" sketch:type="MSArtboardGroup" transform="translate(-294.000000, 0.000000)" fill="#FFFFFF">
            <g id="Header-2" sketch:type="MSLayerGroup" transform="translate(214.000000, -13.000000)">
                <g id="Lille" sketch:type="MSShapeGroup">
                    <g id="Hvid-kant-+-BG">
                        <path d="M1268,12.9999996 C1165.50361,12.9999997 1113.7922,129.826114 1072.6832,138.695159 C1062,141.000001 1057,144.000001 1012,144.000001 C939,144.000001 884.481308,137.039666 800,136 C741.969512,135.28585 656.980754,141 611,141 C579.279805,141 550,147 410,138.69516 C360.582574,135.763704 304.052811,132.675769 255,133.231689 C186.712203,134.005602 114,144 80,144 L80,151.000001 L1520,151 L1520,13 C1506,13 1370.49639,12.9999995 1268,12.9999996 Z" id="Hvid-kant"></path>
                    </g>
                </g>
            </g>
        </g>
    </g>
</svg>