<svg width="174" height="11" viewBox="0 0 174 11" xmlns="http://www.w3.org/2000/svg">
  <g fill="#9C9C9C" fill-rule="evenodd">
    <path d="M81.81148 10.66632l-2.92516-4.4561v4.4561h-3.18614V.47308h3.18614v3.94524l1.84125-2.35035c.4676-.57245.7689-1.17395.84397-1.5949h3.44222c-.0614.52697-.48548 1.30972-1.17933 2.09247l-2.24745 2.5904 4.0617 5.51038h-3.8372M91.02368 10.84722c-2.41758 0-4.93724-1.0088-4.93724-3.89975V.47307h3.16826v6.30924c0 1.06794.66648 1.71702 1.6918 1.71702.98185 0 1.58484-.67847 1.58484-1.717V.47307h3.17036v6.4744c0 2.8619-2.23378 3.89974-4.67802 3.89974M104.8476 10.66632l-3.56042-5.28435c-.18135-.25578-.3627-.67882-.3627-.67882l-.0614.03184s.0614.3303.0614 1.05217v4.87915h-2.7326V.47308h2.9592l3.56042 5.2847c.1975.28692.3627.67847.3627.67847l.0586-.03184s-.0586-.5567-.0586-1.05427V.47308h2.7326v10.19324h-2.9592M114.04087 10.84722c-2.32673 0-3.90945-.84363-4.52858-2.48366l2.59647-.85973c.30167.93426 1.08672 1.23518 2.08188 1.23518.98184 0 1.53958-.45242 1.53958-1.11515 0-2.09247-5.9482.51332-5.9482-4.1398 0-1.89756 1.87318-3.19187 4.28866-3.19187 2.2927 0 3.65302.63333 4.24268 1.76214l-2.2948 1.1449c-.3494-.70786-1.10216-.90486-1.88686-.90486-.84608 0-1.3291.33242-1.3291.90487 0 1.71456 5.97765-.61794 5.97765 4.01977 0 2.18274-1.88615 3.62822-4.7394 3.62822M128.21042 2.917h-2.89832v7.93022h-3.2735V2.917h-3.0247V.67795h9.4913l-.29478 2.23905M133.02082 2.7174v1.9273h4.02083l-.42987 2.19605h-3.59096v3.82557h-3.12868V.47308h7.92065V2.7174h-4.79198M144.29596 2.62678c-1.34855 0-2.44752 1.00914-2.44752 2.93645 0 1.9273 1.09897 2.9361 2.44752 2.9361 1.35027 0 2.4334-1.0088 2.4334-2.9361 0-1.9273-1.08313-2.93645-2.4334-2.93645zm-.0293 8.22044c-2.98184 0-5.56276-1.83668-5.56276-5.25495 0-3.40218 2.58092-5.284 5.56276-5.284 2.99528 0 5.6069 1.88182 5.6069 5.284 0 3.41827-2.61162 5.25495-5.6069 5.25495zM158.12514 10.84722l-3.51627-5.27192c-.17936-.25518-.35803-.67723-.35803-.67723l-.05852.03177s.05852.32954.05852 1.0497v4.86768h-2.69528V.67795h2.91896l3.5166 5.27227c.19496.28625.35597.67688.35597.67688l.06058-.03176s-.0606-.5554-.0606-1.0518V.67793h2.6998v10.16928h-2.92174M167.57025 2.9306h-.7777v5.67792h.7777c2.02626 0 2.57268-1.11044 2.57268-2.89777 0-2.09-.77535-2.78014-2.57268-2.78014zm-3.81157 7.91662V.67795h4.3152c3.39382 0 5.17612 1.6229 5.17612 5.06247 0 3.4392-1.76926 5.1068-5.1761 5.1068h-4.31522z"/>
    <g>
      <path d="M4.5386 10.84722c-2.3317 0-3.91815-.84363-4.5386-2.48366l2.60203-.85973c.3023.93426 1.0887 1.23518 2.08633 1.23518.9843 0 1.54322-.45242 1.54322-1.11515 0-2.09247-5.9609.51332-5.9609-4.1398C.27068 1.5865 2.1475.2922 4.56778.2922c2.2976 0 3.6612.63333 4.25212 1.76214l-2.30007 1.1449c-.34977-.70786-1.10415-.90486-1.89053-.90486-.84754 0-1.33195.33242-1.33195.90487 0 1.71456 5.99078-.61794 5.99078 4.01977 0 2.18274-1.89088 3.62822-4.74952 3.62822M18.68532 2.917h-2.89856v7.93022h-3.27302V2.917H9.49132V.67795h9.49132L18.68532 2.917M23.41998 3.2015h-.228L22.1898 6.49167h2.25986L23.41998 3.2015zm2.2602 7.64572l-.82035-2.4328h-3.0619l-.8066 2.4328h-3.3646L21.46284.67795h3.83678l3.8523 10.16927h-3.4717zM37.67042 2.917h-2.89898v7.93022h-3.27426V2.917h-3.02322V.67795h9.49132L37.67042 2.917M39.32118 10.84722V.67795h8.13542V2.917h-4.97993v1.6655h3.87262l-.4041 2.10325h-3.46853v1.93848h4.97993v2.223h-8.13542M55.76603 10.66632L52.2035 5.38197c-.1817-.25578-.36306-.67882-.36306-.67882l-.06104.03184s.06104.3303.06104 1.05217v4.87915h-2.73258V.47308h2.95954l3.56253 5.2847c.19503.28692.3627.67847.3627.67847l.05893-.03184s-.05893-.5567-.05893-1.05427V.47308h2.73048v10.19324h-2.95707M64.9572 10.84722c-2.32464 0-3.90736-.84363-4.5286-2.48366l2.5965-.85973c.30166.93426 1.086 1.23518 2.08398 1.23518.97973 0 1.53782-.45242 1.53782-1.11515 0-2.09247-5.9461.51332-5.9461-4.1398C60.7008 1.5865 62.574.2922 64.9863.2922c2.2955 0 3.65373.63333 4.24375 1.76214l-2.2955 1.1449c-.34693-.70786-1.1018-.90486-1.8865-.90486-.84574 0-1.32666.33242-1.32666.90487 0 1.71456 5.97554-.61794 5.97554 4.01977 0 2.18274-1.88685 3.62822-4.73975 3.62822"/>
    </g>
  </g>
</svg>